<?xml version="1.0" encoding="UTF-8"?>
<svg width="794" height="888" version="1.1" viewBox="0 0 793.70135 888.18933" xml:space="preserve" xmlns="http://www.w3.org/2000/svg"><g transform="matrix(1.33 0 0 -1.33 0 888)"><path d="m506 295v303h-71v-175l-0.307-128zm-151-144 22.8-66.4c20.7 8.97 39.6 21.2 56.2 36.1v-44.6h71.7v182h-73.9c-5.74-47.2-35.6-87-76.8-107" fill="#707173"/><path d="m319 410 22.9 66.6c-14.7 3.3-29.9 5.1-45.6 5.1-63.2 0-120-28.4-158-73.1l57.6-40.3c25 26.8 60.6 43.7 100 43.7 7.72 0 15.2-0.793 22.6-2.02" fill="#c7d32c"/><path d="m174 338-57.5 40.3c-17.6-30.4-27.7-65.6-27.7-103 0-39.7 11.2-76.8 30.6-108l55.8 42.8c-10.6 19.5-16.6 41.8-16.6 65.5 0 22.7 5.62 44.1 15.4 63" fill="#d87d28"/><path d="m198 179-55.6-42.7c37.9-42.2 92.8-68.7 154-68.7 16.1 0 31.7 1.89 46.7 5.36l-22.9 66.6c-7.74-1.36-15.7-2.2-23.8-2.2-38.6 0-73.4 16-98.3 41.6" fill="#c12a1c"/><path d="m500 295c-1.27 13.4-3.81 26.8-7.83 40.2-18.2 60.5-61.7 106-115 130l-22-66.7c32.9-16.2 59.3-45.4 70.7-83.3 2.01-6.68 3.33-13.4 4.27-20.1z" fill="#1f99d2"/></g></svg>
